<?xml version="1.0" encoding="UTF-8"?>
<svg width="800px" height="906px" viewBox="0 0 800 906" version="1.1" xmlns="http://www.w3.org/2000/svg" xmlns:xlink="http://www.w3.org/1999/xlink">
    <title>标题背景</title>
    <defs>
        <ellipse id="path-1" cx="400" cy="453" rx="400" ry="453"></ellipse>
    </defs>
    <g id="整合" stroke="none" stroke-width="1" fill="none" fill-rule="evenodd">
        <g id="首页" transform="translate(-560.000000, 573.000000)">
            <g id="标题背景" transform="translate(560.000000, -573.000000)">
                <mask id="mask-2" fill="white">
                    <use xlink:href="#path-1"></use>
                </mask>
                <ellipse stroke="#DFE3EB" cx="400" cy="453" rx="399.5" ry="452.5"></ellipse>
                <g id="编组" mask="url(#mask-2)" stroke="#DFE3EB" stroke-linecap="square">
                    <g transform="translate(408.830022, 461.500000) rotate(45.000000) translate(-408.830022, -461.500000) translate(-87.054508, -25.767767)">
                        <line x1="991.32756" y1="1.0529045" x2="991.32756" y2="971.361309" id="直线备份-96"></line>
                        <line x1="979.4644" y1="1.76001128" x2="979.4644" y2="972.068416" id="直线备份-95"></line>
                        <line x1="968.849993" y1="1.0529045" x2="968.849993" y2="971.361309" id="直线备份-94"></line>
                        <line x1="958.235587" y1="1.76001128" x2="958.235587" y2="972.068416" id="直线备份-93"></line>
                        <line x1="946.372427" y1="1.0529045" x2="946.372427" y2="971.361309" id="直线备份-92"></line>
                        <line x1="936.382397" y1="1.0529045" x2="936.382397" y2="971.361309" id="直线备份-91"></line>
                        <line x1="925.767991" y1="0.345797721" x2="925.767991" y2="970.654202" id="直线备份-90"></line>
                        <line x1="913.904831" y1="1.0529045" x2="913.904831" y2="971.361309" id="直线备份-89"></line>
                        <line x1="903.290424" y1="1.76001128" x2="903.290424" y2="972.068416" id="直线备份-88"></line>
                        <line x1="892.676018" y1="1.0529045" x2="892.676018" y2="971.361309" id="直线备份-87"></line>
                        <line x1="880.188481" y1="2.46711806" x2="880.188481" y2="972.775523" id="直线备份-86"></line>
                        <line x1="869.574075" y1="1.76001128" x2="869.574075" y2="972.068416" id="直线备份-85"></line>
                        <line x1="858.335291" y1="1.76001128" x2="858.335291" y2="972.068416" id="直线备份-84"></line>
                        <line x1="847.096508" y1="3.17422485" x2="847.096508" y2="973.482629" id="直线备份-83"></line>
                        <line x1="835.857725" y1="1.76001128" x2="835.857725" y2="972.068416" id="直线备份-82"></line>
                        <line x1="825.243318" y1="2.46711806" x2="825.243318" y2="972.775523" id="直线备份-81"></line>
                        <line x1="814.004535" y1="2.46711806" x2="814.004535" y2="972.775523" id="直线备份-80"></line>
                        <line x1="802.765752" y1="2.46711806" x2="802.765752" y2="972.775523" id="直线备份-79"></line>
                        <line x1="792.151345" y1="1.76001128" x2="792.151345" y2="972.068416" id="直线备份-78"></line>
                        <line x1="780.912562" y1="1.76001128" x2="780.912562" y2="972.068416" id="直线备份-77"></line>
                        <line x1="769.049402" y1="2.46711806" x2="769.049402" y2="972.775523" id="直线备份-76"></line>
                        <line x1="758.434995" y1="1.76001128" x2="758.434995" y2="972.068416" id="直线备份-75"></line>
                        <line x1="747.820589" y1="2.46711806" x2="747.820589" y2="972.775523" id="直线备份-74"></line>
                        <line x1="735.957429" y1="1.76001128" x2="735.957429" y2="972.068416" id="直线备份-73"></line>
                        <line x1="724.718646" y1="1.76001128" x2="724.718646" y2="972.068416" id="直线备份-72"></line>
                        <line x1="714.104239" y1="2.46711806" x2="714.104239" y2="972.775523" id="直线备份-71"></line>
                        <line x1="702.241079" y1="1.76001128" x2="702.241079" y2="972.068416" id="直线备份-70"></line>
                        <line x1="691.626673" y1="2.46711806" x2="691.626673" y2="972.775523" id="直线备份-69"></line>
                        <line x1="681.636643" y1="1.0529045" x2="681.636643" y2="971.361309" id="直线备份-68"></line>
                        <line x1="669.773483" y1="1.76001128" x2="669.773483" y2="972.068416" id="直线备份-67"></line>
                        <line x1="659.783453" y1="1.76001128" x2="659.783453" y2="972.068416" id="直线备份-66"></line>
                        <line x1="648.54467" y1="1.76001128" x2="648.54467" y2="972.068416" id="直线备份-65"></line>
                        <line x1="636.68151" y1="2.46711806" x2="636.68151" y2="972.775523" id="直线备份-64"></line>
                        <line x1="626.067104" y1="1.76001128" x2="626.067104" y2="972.068416" id="直线备份-63"></line>
                        <line x1="615.452697" y1="2.46711806" x2="615.452697" y2="972.775523" id="直线备份-62"></line>
                        <line x1="603.589537" y1="1.76001128" x2="603.589537" y2="972.068416" id="直线备份-61"></line>
                        <line x1="592.350754" y1="1.76001128" x2="592.350754" y2="972.068416" id="直线备份-60"></line>
                        <line x1="581.736347" y1="2.46711806" x2="581.736347" y2="972.775523" id="直线备份-59"></line>
                        <line x1="569.873187" y1="1.76001128" x2="569.873187" y2="972.068416" id="直线备份-58"></line>
                        <line x1="559.258781" y1="2.46711806" x2="559.258781" y2="972.775523" id="直线备份-57"></line>
                        <line x1="549.893128" y1="1.76001128" x2="549.893128" y2="972.068416" id="直线备份-56"></line>
                        <line x1="539.903098" y1="1.76001128" x2="539.903098" y2="972.068416" id="直线备份-55"></line>
                        <line x1="529.288692" y1="2.46711806" x2="529.288692" y2="972.775523" id="直线备份-54"></line>
                        <line x1="519.923039" y1="1.76001128" x2="519.923039" y2="972.068416" id="直线备份-53"></line>
                        <line x1="510.557387" y1="2.46711806" x2="510.557387" y2="972.775523" id="直线备份-52"></line>
                        <line x1="500.567357" y1="2.46711806" x2="500.567357" y2="972.775523" id="直线备份-51"></line>
                        <line x1="489.952951" y1="1.76001128" x2="489.952951" y2="972.068416" id="直线备份-50"></line>
                        <line x1="480.587298" y1="2.46711806" x2="480.587298" y2="972.775523" id="直线备份-49"></line>
                        <line x1="471.221645" y1="1.76001128" x2="471.221645" y2="972.068416" id="直线备份-48"></line>
                        <line x1="461.231615" y1="1.76001128" x2="461.231615" y2="972.068416" id="直线备份-47"></line>
                        <line x1="451.241586" y1="3.17422485" x2="451.241586" y2="973.482629" id="直线备份-46"></line>
                        <line x1="440.627179" y1="1.0529045" x2="440.627179" y2="971.361309" id="直线备份-45"></line>
                        <line x1="431.261527" y1="0.345797721" x2="431.261527" y2="970.654202" id="直线备份-44"></line>
                        <line x1="421.895874" y1="1.0529045" x2="421.895874" y2="971.361309" id="直线备份-43"></line>
                        <line x1="412.530221" y1="1.76001128" x2="412.530221" y2="972.068416" id="直线备份-42"></line>
                        <line x1="402.540192" y1="1.76001128" x2="402.540192" y2="972.068416" id="直线备份-41"></line>
                        <line x1="392.550162" y1="1.76001128" x2="392.550162" y2="972.068416" id="直线备份-40"></line>
                        <line x1="383.184509" y1="1.0529045" x2="383.184509" y2="971.361309" id="直线备份-39"></line>
                        <line x1="373.818857" y1="1.76001128" x2="373.818857" y2="972.068416" id="直线备份-38"></line>
                        <line x1="363.20445" y1="1.0529045" x2="363.20445" y2="971.361309" id="直线备份-37"></line>
                        <line x1="353.838797" y1="1.76001128" x2="353.838797" y2="972.068416" id="直线备份-36"></line>
                        <line x1="343.848768" y1="1.76001128" x2="343.848768" y2="972.068416" id="直线备份-35"></line>
                        <line x1="334.483115" y1="1.0529045" x2="334.483115" y2="971.361309" id="直线备份-34"></line>
                        <line x1="323.244332" y1="1.0529045" x2="323.244332" y2="971.361309" id="直线备份-33"></line>
                        <line x1="314.503056" y1="2.46711806" x2="314.503056" y2="972.775523" id="直线备份-32"></line>
                        <line x1="304.513026" y1="1.0529045" x2="304.513026" y2="971.361309" id="直线备份-31"></line>
                        <line x1="295.147374" y1="1.76001128" x2="295.147374" y2="972.068416" id="直线备份-30"></line>
                        <line x1="284.532967" y1="1.0529045" x2="284.532967" y2="971.361309" id="直线备份-29"></line>
                        <line x1="275.167315" y1="1.76001128" x2="275.167315" y2="972.068416" id="直线备份-28"></line>
                        <line x1="265.801662" y1="2.46711806" x2="265.801662" y2="972.775523" id="直线备份-27"></line>
                        <line x1="255.811632" y1="1.0529045" x2="255.811632" y2="971.361309" id="直线备份-26"></line>
                        <line x1="245.197226" y1="1.76001128" x2="245.197226" y2="972.068416" id="直线备份-25"></line>
                        <line x1="235.207196" y1="3.17422485" x2="235.207196" y2="973.482629" id="直线备份-24"></line>
                        <line x1="225.841543" y1="2.46711806" x2="225.841543" y2="972.775523" id="直线备份-23"></line>
                        <line x1="215.227137" y1="1.76001128" x2="215.227137" y2="972.068416" id="直线备份-22"></line>
                        <line x1="205.237107" y1="3.17422485" x2="205.237107" y2="973.482629" id="直线备份-21"></line>
                        <line x1="196.495832" y1="1.76001128" x2="196.495832" y2="972.068416" id="直线备份-20"></line>
                        <line x1="186.505802" y1="3.17422485" x2="186.505802" y2="973.482629" id="直线备份-19"></line>
                        <line x1="177.764526" y1="1.76001128" x2="177.764526" y2="972.068416" id="直线备份-18"></line>
                        <line x1="167.15012" y1="1.0529045" x2="167.15012" y2="971.361309" id="直线备份-17"></line>
                        <line x1="157.16009" y1="2.46711806" x2="157.16009" y2="972.775523" id="直线备份-16"></line>
                        <line x1="148.418814" y1="2.46711806" x2="148.418814" y2="972.775523" id="直线备份-15"></line>
                        <line x1="138.428785" y1="2.46711806" x2="138.428785" y2="972.775523" id="直线备份-14"></line>
                        <line x1="128.438755" y1="2.46711806" x2="128.438755" y2="972.775523" id="直线备份-13"></line>
                        <line x1="117.824349" y1="1.76001128" x2="117.824349" y2="972.068416" id="直线备份-12"></line>
                        <line x1="109.083073" y1="3.17422485" x2="109.083073" y2="973.482629" id="直线备份-11"></line>
                        <line x1="99.0930432" y1="3.17422485" x2="99.0930432" y2="973.482629" id="直线备份-10"></line>
                        <line x1="89.1030136" y1="3.17422485" x2="89.1030136" y2="973.482629" id="直线备份-9"></line>
                        <line x1="78.4886072" y1="2.46711806" x2="78.4886072" y2="972.775523" id="直线备份-8"></line>
                        <line x1="69.1229545" y1="1.76001128" x2="69.1229545" y2="972.068416" id="直线备份-7"></line>
                        <line x1="59.7573017" y1="2.46711806" x2="59.7573017" y2="972.775523" id="直线备份-6"></line>
                        <line x1="49.7672722" y1="3.88133163" x2="49.7672722" y2="974.189736" id="直线备份-5"></line>
                        <line x1="39.1528657" y1="1.76001128" x2="39.1528657" y2="972.068416" id="直线备份-4"></line>
                        <line x1="29.1628361" y1="1.76001128" x2="29.1628361" y2="972.068416" id="直线备份-3"></line>
                        <line x1="19.7971834" y1="2.46711806" x2="19.7971834" y2="972.775523" id="直线备份-2"></line>
                        <line x1="11.0559075" y1="2.46711806" x2="11.0559075" y2="972.775523" id="直线备份"></line>
                        <line x1="0.441501104" y1="3.17422485" x2="0.441501104" y2="973.482629" id="直线"></line>
                    </g>
                </g>
            </g>
        </g>
    </g>
</svg>